<?xml version="1.0" encoding="UTF-8" standalone="no"?>
<!DOCTYPE svg PUBLIC "-//W3C//DTD SVG 1.1//EN" "http://www.w3.org/Graphics/SVG/1.1/DTD/svg11.dtd">
<svg width="100%" height="100%" viewBox="0 0 1350 190" version="1.1" xmlns="http://www.w3.org/2000/svg" xmlns:xlink="http://www.w3.org/1999/xlink" xml:space="preserve" xmlns:serif="http://www.serif.com/" style="fill-rule:evenodd;clip-rule:evenodd;stroke-linecap:square;stroke-linejoin:round;stroke-miterlimit:1.5;">
    <g transform="matrix(1.40687,0,0,1.40687,-229.342,-663.29)">
        <g transform="matrix(0.864766,0,0,0.212146,113.225,429.404)">
            <path d="M98.241,632.411C98.241,628.791 98.13,625.623 97.686,622.003L89.36,617.025L88.916,480.364L123.885,480.364L123.441,617.025L115.115,622.003C114.782,625.171 114.56,628.338 114.56,632.411C114.56,635.579 114.782,639.199 115.115,643.271L146.31,643.271C146.643,639.651 146.865,636.031 146.865,632.411C146.865,628.791 146.754,625.623 146.31,622.003L137.984,617.025L137.984,330.128L146.31,325.15C146.754,321.53 146.865,318.363 146.865,315.195C146.865,311.122 146.643,307.502 146.31,303.882L115.115,303.882C114.782,307.955 114.56,311.575 114.56,315.195C114.56,318.815 114.782,321.983 115.115,325.15L123.441,330.128L123.885,451.856L88.916,451.856L89.36,330.128L97.686,325.15C98.13,321.53 98.241,318.363 98.241,315.195C98.241,311.122 98.019,307.502 97.686,303.882L66.491,303.882C66.158,307.955 65.936,311.575 65.936,315.195C65.936,318.815 66.158,321.983 66.491,325.15L74.817,330.128L74.817,617.025L66.491,622.003C66.158,625.171 65.936,628.338 65.936,632.411C65.936,635.579 66.158,639.199 66.491,643.271L97.686,643.271C98.019,639.651 98.241,636.031 98.241,632.411Z" style="fill:rgb(37,75,51);fill-rule:nonzero;"/>
            <path d="M169.178,373.117C173.73,373.117 177.393,357.279 177.393,339.178C177.393,320.625 173.73,304.787 169.178,304.787C164.516,304.787 160.852,320.625 160.852,339.178C160.852,357.279 164.516,373.117 169.178,373.117ZM155.524,633.316C155.524,636.484 155.635,640.556 155.968,643.271L183.166,643.271C183.499,639.651 183.61,636.031 183.61,632.863C183.61,629.696 183.499,626.528 183.055,623.813L176.505,617.93L176.505,453.666C176.505,432.397 176.727,415.654 177.282,398.458C171.287,400.269 161.74,402.079 155.857,402.984C155.635,406.604 155.524,409.771 155.524,412.939C155.524,416.559 155.635,419.727 155.857,422.895L162.85,426.967L162.85,617.93L155.968,623.813C155.635,626.981 155.524,630.148 155.524,633.316Z" style="fill:rgb(37,75,51);fill-rule:nonzero;"/>
            <path d="M224.018,317.005L231.012,321.078L231.012,407.509C226.905,402.984 222.242,398.458 220.688,398.458C205.035,398.458 191.603,446.426 191.603,525.616C191.603,597.567 201.594,647.797 217.58,647.797C219.245,647.797 227.238,634.674 232.899,624.266L235.009,643.271L251.439,643.271C251.772,640.104 251.883,636.484 251.883,632.863C251.883,630.148 251.772,626.528 251.439,623.361L244.667,618.835L244.667,341.441C244.667,324.698 244.889,305.692 245.444,290.306C239.005,292.569 230.346,294.832 224.018,297.094C223.796,300.262 223.685,303.882 223.685,307.05C223.685,310.217 223.796,313.385 224.018,317.005ZM231.012,434.208L231.012,605.712C226.017,613.405 220.022,619.74 218.912,619.74C210.808,619.74 206.145,573.583 206.145,525.616C206.145,464.526 211.474,424.705 220.022,424.705C221.687,424.705 225.795,427.42 231.012,434.208Z" style="fill:rgb(37,75,51);fill-rule:nonzero;"/>
            <path d="M290.848,317.005L297.842,321.078L297.842,407.509C293.734,402.984 289.072,398.458 287.518,398.458C271.865,398.458 258.432,446.426 258.432,525.616C258.432,597.567 268.424,647.797 284.409,647.797C286.075,647.797 294.067,634.674 299.729,624.266L301.838,643.271L318.268,643.271C318.601,640.104 318.712,636.484 318.712,632.863C318.712,630.148 318.601,626.528 318.268,623.361L311.496,618.835L311.496,341.441C311.496,324.698 311.719,305.692 312.274,290.306C305.835,292.569 297.176,294.832 290.848,297.094C290.626,300.262 290.515,303.882 290.515,307.05C290.515,310.217 290.626,313.385 290.848,317.005ZM297.842,434.208L297.842,605.712C292.846,613.405 286.852,619.74 285.742,619.74C277.638,619.74 272.975,573.583 272.975,525.616C272.975,464.526 278.304,424.705 286.852,424.705C288.517,424.705 292.624,427.42 297.842,434.208Z" style="fill:rgb(37,75,51);fill-rule:nonzero;"/>
            <path d="M325.262,524.711C325.262,600.282 336.807,647.797 354.902,647.797C362.562,647.797 370.444,637.389 376.55,618.835C376.439,609.785 375.218,602.092 373.997,597.114C368.446,611.595 362.784,617.93 356.79,617.93C346.354,617.93 340.693,586.707 339.805,534.214L377.216,524.711C377.216,450.951 368.779,398.458 353.126,398.458C336.807,398.458 325.262,448.688 325.262,524.711ZM339.805,506.158C340.36,454.571 344.8,423.347 352.127,423.347C359.454,423.347 363.006,458.644 363.45,499.823L339.805,506.158Z" style="fill:rgb(37,75,51);fill-rule:nonzero;"/>
            <path d="M385.653,633.316C385.653,636.484 385.764,640.556 386.097,643.271L412.962,643.271C413.295,640.556 413.517,636.936 413.517,632.863C413.517,630.148 413.406,626.981 412.962,623.813L406.634,617.93L406.634,448.688C412.518,441.448 419.512,434.208 420.844,434.208C426.506,434.208 428.171,450.046 428.171,478.554L428.171,617.93L421.621,623.813C421.399,625.623 421.177,629.243 421.177,633.316C421.177,636.484 421.288,640.556 421.621,643.271L448.375,643.271C448.708,640.556 448.93,636.936 448.93,633.316C448.93,630.148 448.819,626.981 448.375,623.813L441.825,618.835L441.825,470.862C441.825,424.252 437.496,398.458 425.396,398.458C423.73,398.458 414.183,414.749 406.634,427.42C406.856,418.369 407.078,408.414 407.3,398.458C401.306,400.269 391.87,402.079 385.986,402.984C385.764,406.604 385.653,409.771 385.653,412.939C385.653,416.559 385.764,419.727 385.986,422.895L392.98,426.967L392.98,617.93L386.097,623.813C385.875,625.623 385.653,629.243 385.653,633.316Z" style="fill:rgb(37,75,51);fill-rule:nonzero;"/>
            <path d="M457.256,643.271L515.427,643.271C516.204,615.668 516.981,585.349 517.314,557.745L510.653,557.745L507.767,612.5L480.125,613.858L479.792,481.722L497.887,483.532L499.441,518.376C500.329,520.186 501.328,520.639 502.216,520.639C503.438,520.639 504.437,519.734 505.436,518.376C505.214,501.633 505.103,485.795 505.103,469.052C505.103,452.761 505.214,436.923 505.436,420.179C504.437,418.822 503.327,417.917 502.327,417.917C501.217,417.917 500.218,418.822 499.33,419.727L497.887,453.666L479.792,455.476L480.125,332.843L506.546,334.201L508.211,392.123L514.983,392.123C515.427,360.447 515.76,334.653 516.093,303.882L457.256,303.882C456.923,307.955 456.701,311.575 456.701,315.195C456.701,318.815 456.923,321.983 457.256,325.15L465.582,330.128L465.582,617.025L457.256,622.003C456.923,625.171 456.701,628.338 456.701,632.411C456.701,635.579 456.923,639.199 457.256,643.271Z" style="fill:rgb(37,75,51);fill-rule:nonzero;"/>
            <path d="M525.64,412.939C525.64,416.107 525.751,418.822 525.973,422.895L532.745,426.967L532.745,575.846C532.745,617.478 536.186,647.797 549.064,647.797C550.84,647.797 560.831,631.506 568.602,618.835L571.488,643.271L588.029,643.271C588.362,640.104 588.584,636.484 588.584,632.863C588.584,630.148 588.473,626.528 588.029,623.361L581.257,617.93L581.257,450.046C581.257,432.85 581.479,414.297 582.035,398.458C575.818,399.816 566.826,401.626 560.942,402.984C560.72,406.151 560.609,409.771 560.609,412.939C560.609,416.559 560.72,419.274 560.942,422.895L567.603,426.967L567.603,595.757C561.275,603.902 554.725,611.595 553.504,611.595C547.51,611.595 546.399,590.327 546.399,567.248L546.399,450.046C546.399,432.85 546.51,414.297 547.177,398.458C540.738,400.721 532.301,402.079 525.973,402.984C525.751,406.604 525.64,409.771 525.64,412.939Z" style="fill:rgb(37,75,51);fill-rule:nonzero;"/>
            <path d="M596.577,633.316C596.577,636.484 596.688,640.556 597.021,643.271L627.217,643.271C627.55,640.556 627.772,636.936 627.772,632.863C627.772,630.148 627.661,626.981 627.217,623.813L617.559,617.93L617.559,479.459C624.108,462.716 629.326,456.381 637.763,456.381C638.318,445.068 638.762,433.302 638.762,421.537C638.762,413.844 638.54,405.699 638.207,398.458C628.438,398.458 623.997,419.727 617.892,459.549L617.448,459.549C617.781,440.995 618.003,417.464 618.336,398.458C611.564,400.269 603.016,402.079 597.021,402.984C596.799,406.604 596.688,409.771 596.688,412.939C596.688,416.559 596.799,419.727 597.021,422.895L603.904,426.967L603.904,617.93L597.021,623.813C596.799,625.623 596.577,629.243 596.577,633.316Z" style="fill:rgb(37,75,51);fill-rule:nonzero;"/>
            <path d="M644.202,523.354C644.202,588.969 654.082,647.797 672.177,647.797C690.05,647.797 700.263,588.517 700.263,522.901C700.263,458.191 690.383,398.458 672.177,398.458C654.415,398.458 644.202,457.739 644.202,523.354ZM658.744,521.996C658.744,469.504 663.629,422.895 672.177,422.895C680.836,422.895 685.831,469.504 685.831,522.449C685.831,576.751 680.503,623.813 672.177,623.813C663.74,623.813 658.744,575.394 658.744,521.996Z" style="fill:rgb(37,75,51);fill-rule:nonzero;"/>
            <path d="M707.812,422.895L714.695,426.967L714.695,717.485L707.812,723.367C707.59,725.177 707.368,728.798 707.368,732.87C707.368,736.49 707.479,740.111 707.812,742.826L737.23,742.826C737.563,740.111 737.674,736.943 737.674,733.323C737.674,730.155 737.563,726.535 737.23,723.367L728.349,717.485L728.349,633.769C733.678,641.009 738.34,647.797 739.895,647.797C756.769,647.797 767.759,591.232 767.759,523.354C767.759,456.381 758.878,398.458 741.227,398.458C739.895,398.458 734.344,407.961 728.571,418.369C728.682,412.939 728.904,404.341 729.126,398.458C720.689,400.721 713.807,402.079 707.812,402.984C707.59,406.604 707.479,409.771 707.479,412.939C707.479,416.559 707.59,419.727 707.812,422.895ZM728.349,441.448C733.789,433.755 739.007,426.062 740.117,426.062C748.11,426.062 753.327,470.409 753.327,524.711C753.327,574.488 748.887,619.74 740.672,619.74C738.674,619.74 733.789,614.31 728.349,607.07L728.349,441.448Z" style="fill:rgb(37,75,51);fill-rule:nonzero;"/>
            <path d="M776.64,524.711C776.64,600.282 788.185,647.797 806.28,647.797C813.94,647.797 821.822,637.389 827.928,618.835C827.817,609.785 826.596,602.092 825.374,597.114C819.824,611.595 814.162,617.93 808.168,617.93C797.732,617.93 792.071,586.707 791.183,534.214L828.594,524.711C828.594,450.951 820.157,398.458 804.504,398.458C788.185,398.458 776.64,448.688 776.64,524.711ZM791.183,506.158C791.738,454.571 796.178,423.347 803.505,423.347C810.832,423.347 814.384,458.644 814.828,499.823L791.183,506.158Z" style="fill:rgb(37,75,51);fill-rule:nonzero;"/>
            <path d="M846.023,646.892C850.574,646.892 854.127,631.958 854.127,613.405C854.127,595.304 850.574,580.371 846.023,580.371C841.471,580.371 837.919,595.304 837.919,613.405C837.919,631.958 841.471,646.892 846.023,646.892Z" style="fill:rgb(37,75,51);fill-rule:nonzero;"/>
            <path d="M858.012,414.749C858.012,418.822 858.123,422.895 858.345,425.61L865.339,428.325L865.339,579.014C865.339,622.908 869.669,647.797 880.326,647.797C884.1,647.797 890.761,644.629 897.2,625.623C897.644,619.288 897.089,609.785 895.313,604.807C891.871,613.405 887.653,619.288 884.433,619.288C879.882,619.288 878.994,604.355 878.994,574.488L878.994,428.777L894.091,428.777L894.091,402.984L878.994,402.984L878.994,340.989L871.667,340.989L865.339,402.984L858.345,405.699C858.123,408.414 858.012,411.582 858.012,414.749Z" style="fill:rgb(37,75,51);fill-rule:nonzero;"/>
            <path d="M902.417,633.316C902.417,636.484 902.528,640.556 902.861,643.271L933.057,643.271C933.39,640.556 933.612,636.936 933.612,632.863C933.612,630.148 933.501,626.981 933.057,623.813L923.399,617.93L923.399,479.459C929.948,462.716 935.166,456.381 943.603,456.381C944.158,445.068 944.602,433.302 944.602,421.537C944.602,413.844 944.38,405.699 944.047,398.458C934.278,398.458 929.837,419.727 923.732,459.549L923.288,459.549C923.621,440.995 923.843,417.464 924.176,398.458C917.404,400.269 908.856,402.079 902.861,402.984C902.639,406.604 902.528,409.771 902.528,412.939C902.528,416.559 902.639,419.727 902.861,422.895L909.744,426.967L909.744,617.93L902.861,623.813C902.639,625.623 902.417,629.243 902.417,633.316Z" style="fill:rgb(37,75,51);fill-rule:nonzero;"/>
            <path d="M952.484,581.729C952.484,626.528 960.255,647.797 967.693,647.797C969.58,647.797 978.794,632.411 986.121,619.74L988.896,643.271L1005.1,643.271C1005.44,640.104 1005.66,636.484 1005.66,632.863C1005.66,630.148 1005.55,626.528 1005.1,623.361L998.998,618.835L998.998,486.247C998.998,433.302 995.224,398.458 981.68,398.458C980.237,398.458 965.806,409.319 957.036,416.559C957.147,438.28 957.48,461.359 958.035,483.532L965.584,483.532L966.694,436.47C970.912,432.397 977.351,428.777 978.683,428.777C984.789,428.777 985.344,453.213 985.344,479.912L985.344,502.99L967.249,513.851C957.258,519.734 952.484,549.147 952.484,581.729ZM965.806,579.919C965.806,555.935 968.803,542.812 973.465,539.645L985.344,531.047L985.344,599.377C979.238,609.332 973.576,615.215 972.244,615.215C968.248,615.215 965.806,603.45 965.806,579.919Z" style="fill:rgb(37,75,51);fill-rule:nonzero;"/>
            <path d="M1004.44,413.392C1004.44,416.107 1004.55,419.274 1004.99,422.895L1010.65,427.42L1032.75,643.271L1040.85,643.271L1062.94,426.967L1068.83,421.989C1069.05,420.179 1069.27,416.559 1069.27,412.939C1069.27,409.771 1069.16,406.151 1068.83,402.984L1047.73,402.984C1047.4,406.604 1047.18,409.771 1047.18,412.939C1047.18,416.107 1047.4,419.274 1047.73,421.989L1054.84,426.967L1040.18,582.181L1025.86,427.872L1032.63,422.895C1032.86,420.632 1032.97,417.012 1032.97,413.392C1032.97,409.771 1032.86,406.151 1032.52,402.984L1004.88,402.984C1004.55,406.151 1004.44,409.771 1004.44,413.392Z" style="fill:rgb(37,75,51);fill-rule:nonzero;"/>
            <path d="M1071.38,524.711C1071.38,600.282 1082.92,647.797 1101.02,647.797C1108.68,647.797 1116.56,637.389 1122.67,618.835C1122.56,609.785 1121.33,602.092 1120.11,597.114C1114.56,611.595 1108.9,617.93 1102.91,617.93C1092.47,617.93 1086.81,586.707 1085.92,534.214L1123.33,524.711C1123.33,450.951 1114.9,398.458 1099.24,398.458C1082.92,398.458 1071.38,448.688 1071.38,524.711ZM1085.92,506.158C1086.48,454.571 1090.92,423.347 1098.24,423.347C1105.57,423.347 1109.12,458.644 1109.57,499.823L1085.92,506.158Z" style="fill:rgb(37,75,51);fill-rule:nonzero;"/>
            <path d="M1131.1,297.094C1130.88,300.262 1130.77,303.882 1130.77,307.05C1130.77,310.217 1130.88,313.385 1131.1,317.005L1137.99,321.078L1137.99,618.383L1131.1,623.813C1130.88,625.623 1130.77,629.243 1130.77,633.316C1130.77,636.484 1130.88,640.556 1131.21,643.271L1158.3,643.271C1158.63,640.556 1158.86,636.936 1158.86,632.863C1158.86,630.148 1158.75,626.981 1158.3,623.813L1151.64,617.93L1151.64,340.989C1151.64,323.793 1151.86,307.502 1152.42,290.306C1146.09,292.569 1137.32,294.832 1131.1,297.094Z" style="fill:rgb(37,75,51);fill-rule:nonzero;"/>
        </g>
        <g transform="matrix(1.00558,0,0,1,-7.68412,-4.01802)">
            <path d="M781.61,589.009L1114.61,589.009" style="fill:none;stroke:rgb(195,165,114);stroke-width:4.25px;"/>
        </g>
        <g transform="matrix(1.5829,0,0,1,-1064.76,-4.01802)">
            <path d="M781.61,589.009L1114.61,589.009" style="fill:rgb(235,235,235);stroke:rgb(195,165,114);stroke-width:3.22px;"/>
        </g>
    </g>
</svg>
